<?xml version="1.0" encoding="utf-8"?>
<!-- Generator: Avocode 2.6.0 - http://avocode.com -->
<svg height="18" width="26" xmlns:xlink="http://www.w3.org/1999/xlink" xmlns="http://www.w3.org/2000/svg" viewBox="0 0 26 18">
    <path fill="#ffffff" fill-rule="evenodd" d="M 0 18 C 0 18 0 16 0 16 C 0 16 26 16 26 16 C 26 16 26 18 26 18 C 26 18 0 18 0 18 Z M 0 0 C 0 0 26 0 26 0 C 26 0 26 2 26 2 C 26 2 0 2 0 2 C 0 2 0 0 0 0 Z M 20 10 C 20 10 0 10 0 10 C 0 10 0 8 0 8 C 0 8 20 8 20 8 C 20 8 20 10 20 10 Z" />
</svg>