<?xml version="1.0" encoding="utf-8"?>
<!-- Generated by IcoMoon.io -->
<!DOCTYPE svg PUBLIC "-//W3C//DTD SVG 1.1//EN" "http://www.w3.org/Graphics/SVG/1.1/DTD/svg11.dtd">
<svg version="1.1" xmlns="http://www.w3.org/2000/svg" xmlns:xlink="http://www.w3.org/1999/xlink" width="32" height="32" viewBox="0 0 32 32">
<path d="M19.392 7.32c0 0 3.597 0 3.597 0s0-5.32 0-5.32c0 0-4.222 0-4.222 0s0 0.011 0 0.011c-5.115 0.183-6.171 3.080-6.268 6.106 0 0 0 0 0 0s0 2.66 0 2.66c0 0-3.489 0-3.489 0s0 5.223 0 5.223c0 0 3.489 0 3.489 0s0 14 0 14c0 0 5.245 0 5.245 0s0-14 0-14c0 0 4.308 0 4.308 0s0.829-5.223 0.829-5.223c0 0-5.137 0-5.137 0s0-1.605 0-1.605c0-1.023 0.678-1.852 1.648-1.852z"></path>
</svg>
