<?xml version="1.0" encoding="utf-8"?>
<!-- Generated by IcoMoon.io -->
<!DOCTYPE svg PUBLIC "-//W3C//DTD SVG 1.1//EN" "http://www.w3.org/Graphics/SVG/1.1/DTD/svg11.dtd">
<svg version="1.1" xmlns="http://www.w3.org/2000/svg" xmlns:xlink="http://www.w3.org/1999/xlink" width="32" height="32" viewBox="0 0 32 32">
<path d="M24.59 2c0 0-17.18 0-17.18 0-2.99 0-5.41 2.43-5.41 5.41 0 0 0 5.72 0 5.72s0 11.46 0 11.46c0 2.99 2.42 5.41 5.41 5.41 0 0 17.18 0 17.18 0 2.99 0 5.41-2.42 5.41-5.41 0 0 0-11.46 0-11.46s0-5.72 0-5.72c0-2.98-2.42-5.41-5.41-5.41zM26.3 5.13c0 0 0.61 0 0.61 0s0 0.6 0 0.6c0 0 0 4.050 0 4.050s-4.68 0.010-4.68 0.010c0 0-0.020-4.65-0.020-4.65s4.090-0.010 4.090-0.010zM16 11.32c3.88 0 4.69 3.64 4.69 4.68 0 2.58-2.11 4.68-4.69 4.68s-4.69-2.1-4.69-4.68c0-1.040 0.81-4.68 4.69-4.68zM26.94 24.25c0 1.48-1.21 2.68-2.69 2.68 0 0-16.55 0-16.55 0-1.48 0-2.68-1.2-2.68-2.68 0 0 0-11.37 0-11.37s3.89 0 3.89 0c-0.36 0.89-0.57 2.1-0.57 3.12 0 4.22 3.44 7.66 7.66 7.66s7.66-3.44 7.66-7.66c0-1.020-0.21-2.23-0.57-3.12 0 0 3.85 0 3.85 0s0 11.37 0 11.37z"></path>
</svg>
