<?xml version="1.0" encoding="utf-8"?>
<!-- Generated by IcoMoon.io -->
<!DOCTYPE svg PUBLIC "-//W3C//DTD SVG 1.1//EN" "http://www.w3.org/Graphics/SVG/1.1/DTD/svg11.dtd">
<svg version="1.1" xmlns="http://www.w3.org/2000/svg" xmlns:xlink="http://www.w3.org/1999/xlink" width="32" height="32" viewBox="0 0 32 32">
<path d="M31.992 29.767c0 0-2.225 2.225-2.225 2.225s-9.093-9.109-9.093-9.109c-2.177 1.697-4.898 2.721-7.876 2.721-7.076 0-12.806-5.731-12.806-12.806s5.731-12.806 12.806-12.806c7.076 0 12.806 5.731 12.806 12.806 0 2.977-1.024 5.699-2.721 7.876 0 0 9.109 9.093 9.109 9.093zM12.798 3.194c-5.299 0-9.605 4.306-9.605 9.605s4.306 9.605 9.605 9.605c5.299 0 9.605-4.306 9.605-9.605s-4.306-9.605-9.605-9.605z"></path>
</svg>
