<?xml version="1.0" encoding="utf-8"?>
<!-- Generator: Avocode 2.6.0 - http://avocode.com -->
<svg height="20" width="20" xmlns:xlink="http://www.w3.org/1999/xlink" xmlns="http://www.w3.org/2000/svg" viewBox="0 0 20 20">
    <path stroke-width="1" stroke="#dbdbdb" fill="#f8f8f8" fill-rule="evenodd" d="M 10 0 C 15.52 0 20 4.48 20 10 C 20 15.52 15.52 20 10 20 C 4.48 20 0 15.52 0 10 C 0 4.48 4.48 0 10 0 Z" />
    <path fill="#dadada" fill-rule="evenodd" d="M 13.71 9.66 C 13.71 9.66 10.83 12.54 10.83 12.54 C 10.79 12.6 10.76 12.66 10.71 12.71 C 10.52 12.91 10.26 13 10 12.99 C 9.74 13 9.48 12.91 9.29 12.71 C 9.24 12.66 9.21 12.6 9.17 12.54 C 9.17 12.54 6.29 9.66 6.29 9.66 C 5.91 9.28 5.91 8.66 6.29 8.29 C 6.66 7.91 7.28 7.91 7.66 8.29 C 7.66 8.29 10 10.63 10 10.63 C 10 10.63 12.34 8.29 12.34 8.29 C 12.72 7.91 13.34 7.91 13.71 8.29 C 14.09 8.66 14.09 9.28 13.71 9.66 Z" />
</svg>