<?xml version="1.0" encoding="utf-8"?>
<!-- Generator: Avocode 2.6.0 - http://avocode.com -->
<svg height="31" width="50" xmlns:xlink="http://www.w3.org/1999/xlink" xmlns="http://www.w3.org/2000/svg" viewBox="0 0 50 31">
    <path fill="#ffffff" fill-rule="evenodd" d="M 34.98 30.89 C 31.05 30.89 27.53 29.48 24.92 27.07 C 22.3 29.48 18.78 30.89 14.96 30.89 C 6.71 30.89 -0.02 24.15 -0.02 15.9 C -0.02 7.65 6.71 0.9 14.96 0.9 C 18.78 0.9 22.3 2.31 24.92 4.73 C 27.63 2.31 31.15 0.9 34.98 0.9 C 43.23 0.9 49.96 7.65 49.96 15.9 C 49.96 24.15 43.23 30.89 34.98 30.89 Z M 6.71 12.28 C 6.71 12.28 5.11 17.01 5.11 17.01 C 5.11 17.01 5 12.28 5 12.28 C 5 12.28 2.69 12.28 2.69 12.28 C 2.69 12.28 1.38 19.92 1.38 19.92 C 1.38 19.92 2.89 19.92 2.89 19.92 C 2.89 19.92 3.9 14.09 3.9 14.09 C 3.9 14.09 4 19.92 4 19.92 C 4 19.92 5.11 19.92 5.11 19.92 C 5.11 19.92 7.22 14.09 7.22 14.09 C 7.22 14.09 6.31 19.92 6.31 19.92 C 6.31 19.92 7.92 19.92 7.92 19.92 C 7.92 19.92 9.23 12.28 9.23 12.28 C 9.23 12.28 6.71 12.28 6.71 12.28 Z M 11.54 13.48 C 10.94 13.48 10.44 13.58 9.63 13.78 C 9.63 13.78 9.43 15.09 9.43 15.19 C 9.73 15.09 10.34 14.89 11.14 14.89 C 11.84 14.89 12.14 15.09 12.14 15.49 C 12.14 15.6 12.14 15.7 12.04 15.9 C 11.74 15.9 11.54 15.9 11.34 15.9 C 9.53 15.9 8.52 16.8 8.52 18.31 C 8.52 19.32 9.13 20.02 10.03 20.02 C 10.74 20.02 11.34 19.82 11.74 19.32 C 11.74 19.32 11.74 19.92 11.74 19.92 C 11.74 19.92 12.85 19.92 13.05 19.82 C 13.15 19.32 13.45 17.41 13.55 16.5 C 13.65 16 13.65 15.6 13.65 15.29 C 13.65 14.09 12.95 13.48 11.54 13.48 Z M 16.47 13.48 C 14.66 13.48 14.06 14.49 14.06 15.6 C 14.06 16.4 14.36 16.9 15.26 17.31 C 15.97 17.61 16.07 17.71 16.07 18.01 C 16.07 18.41 15.77 18.61 15.16 18.61 C 14.66 18.61 14.16 18.61 13.65 18.41 C 13.65 18.41 13.45 19.72 13.45 19.82 C 13.86 19.92 14.16 20.02 15.16 20.02 C 16.87 20.02 17.68 19.32 17.68 17.91 C 17.68 17.11 17.38 16.6 16.57 16.2 C 15.87 15.9 15.77 15.8 15.67 15.39 C 15.67 15.09 15.97 14.89 16.47 14.89 C 16.87 14.89 17.27 14.89 17.68 14.99 C 17.68 14.99 17.88 13.58 17.88 13.58 C 17.48 13.58 16.87 13.48 16.47 13.48 Z M 20.29 12.78 C 20.29 12.78 18.68 12.78 18.68 12.78 C 18.68 12.78 18.08 16.4 17.98 17.01 C 17.88 17.61 17.78 18.31 17.78 18.61 C 17.78 19.52 18.28 20.02 19.09 20.02 C 19.49 20.02 19.89 19.92 20.29 19.82 C 20.29 19.82 20.49 18.41 20.49 18.41 C 20.39 18.51 20.29 18.51 20.09 18.51 C 19.79 18.51 19.59 18.31 19.39 18.01 C 19.39 17.81 19.69 16.4 19.89 15.19 C 19.89 15.19 20.7 15.19 20.7 15.19 C 20.7 15.19 20.9 13.68 20.9 13.68 C 20.9 13.68 20.09 13.68 20.09 13.68 C 20.09 13.68 20.29 12.78 20.29 12.78 Z M 23.71 13.48 C 22.1 13.48 20.9 15.09 20.9 17.21 C 20.9 19.02 21.8 19.92 23.61 19.92 C 24.22 19.92 24.72 19.92 25.32 19.72 C 25.32 19.72 25.62 18.21 25.62 18.21 C 25.02 18.51 24.52 18.61 23.91 18.61 C 23.01 18.61 22.4 18.21 22.5 17.21 C 22.5 17.21 25.72 17.21 25.72 17.21 C 25.82 16.6 25.92 16.2 25.92 15.7 C 25.92 14.39 25.02 13.48 23.71 13.48 Z M 28.24 14.69 C 28.24 14.39 28.34 14.09 28.34 13.78 C 28.34 13.78 26.83 13.78 26.83 13.78 C 26.63 15.7 26.33 17.61 26.03 19.52 C 26.03 19.52 25.92 19.92 25.92 19.92 C 25.92 19.92 27.53 19.92 27.53 19.92 C 28.14 16.1 28.24 15.39 29.24 15.49 C 29.35 14.69 29.65 13.99 29.85 13.68 C 29.14 13.58 28.74 13.99 28.24 14.69 Z M 33.27 12.07 C 31.05 12.07 29.55 13.99 29.55 16.7 C 29.55 18.72 30.65 20.02 32.36 20.02 C 32.76 20.02 33.17 20.02 33.77 19.82 C 33.77 19.82 34.17 17.91 34.17 17.91 C 33.57 18.21 33.17 18.31 32.76 18.31 C 31.86 18.31 31.26 17.61 31.26 16.5 C 31.26 14.89 32.16 13.68 33.37 13.68 C 33.77 13.68 34.17 13.78 34.78 14.09 C 34.78 14.09 35.08 12.48 35.08 12.48 C 34.78 12.38 33.97 12.07 33.27 12.07 Z M 37.29 13.48 C 36.69 13.48 36.18 13.58 35.38 13.78 C 35.38 13.78 35.18 15.09 35.18 15.19 C 35.48 15.09 36.08 14.89 36.89 14.89 C 37.59 14.89 37.89 15.09 37.89 15.49 C 37.89 15.6 37.89 15.7 37.79 15.9 C 37.49 15.9 37.29 15.9 37.09 15.9 C 35.28 15.9 34.27 16.8 34.27 18.31 C 34.27 19.32 34.88 20.02 35.78 20.02 C 36.49 20.02 37.09 19.82 37.49 19.32 C 37.49 19.32 37.49 19.92 37.49 19.92 C 37.49 19.92 38.6 19.92 38.8 19.92 C 38.8 19.42 39.1 17.51 39.3 16.5 C 39.4 16 39.4 15.6 39.4 15.29 C 39.4 14.09 38.7 13.48 37.29 13.48 Z M 41.72 14.69 C 41.72 14.39 41.82 14.09 41.82 13.78 C 41.82 13.78 40.31 13.78 40.31 13.78 C 40.11 15.7 39.8 17.61 39.5 19.52 C 39.5 19.52 39.4 19.92 39.4 19.92 C 39.4 19.92 41.01 19.92 41.01 19.92 C 41.51 16.1 41.72 15.39 42.72 15.49 C 42.82 14.69 43.12 13.99 43.33 13.68 C 42.62 13.58 42.22 13.99 41.72 14.69 Z M 46.54 14.39 C 46.14 13.89 45.64 13.58 45.03 13.58 C 43.63 13.58 42.42 15.39 42.42 17.41 C 42.42 19.02 43.23 20.02 44.43 20.02 C 45.03 20.02 45.54 19.82 45.94 19.32 C 45.94 19.32 45.86 19.82 45.86 19.82 C 45.86 19.82 47.35 19.82 47.35 19.82 C 47.35 19.82 48.55 12.18 48.55 12.18 C 48.55 12.18 46.95 12.18 46.95 12.18 C 46.95 12.18 46.54 14.39 46.54 14.39 Z M 44.93 18.51 C 44.43 18.51 44.13 18.11 44.13 17.31 C 44.13 16.1 44.73 15.19 45.44 15.19 C 46.04 15.19 46.34 15.6 46.24 16.4 C 46.24 17.61 45.74 18.51 44.93 18.51 Z M 36.49 18.61 C 36.08 18.61 35.88 18.41 35.88 18.01 C 35.88 17.41 36.28 17.11 37.29 17.11 C 37.49 17.11 37.49 17.11 37.69 17.11 C 37.59 18.01 37.19 18.61 36.49 18.61 Z M 22.61 16.1 C 22.71 15.39 23.11 14.99 23.61 14.99 C 24.62 14.99 24.42 15.9 24.42 16.1 C 24.42 16.1 22.61 16.1 22.61 16.1 Z M 10.74 18.61 C 10.34 18.61 10.13 18.41 10.13 18.01 C 10.13 17.41 10.64 17.11 11.54 17.11 C 11.74 17.11 11.74 17.11 11.94 17.11 C 11.84 18.01 11.44 18.61 10.74 18.61 Z" />
</svg>